<?xml version="1.0" encoding="utf-8"?>
<!-- Generator: Adobe Illustrator 24.2.3, SVG Export Plug-In . SVG Version: 6.00 Build 0)  -->
<svg version="1.1" id="Layer_1" xmlns="http://www.w3.org/2000/svg" xmlns:xlink="http://www.w3.org/1999/xlink" x="0px" y="0px"
	 viewBox="0 0 577 375.7" style="enable-background:new 0 0 577 375.7;" xml:space="preserve">
<style type="text/css">
	.st0{fill:#434343;}
	.st1{fill:#F7BA17;}
	.st2{fill:#FFFFFF;}
</style>
<polygon class="st0" points="539,165.8 47.1,165.8 47.1,183 30,183 30,336.3 47.1,336.3 47.1,353.4 539,353.4 539,336.3 
	556.1,336.3 556.1,183 539,183 "/>
<g>
	<path class="st1" d="M63.9,148.1v-17h-17v-17H30V63.2h17v-17h17v-17h84.9v17H80.9v17h-17v50.9h17v17h33.9V97.2h-17v-17h50.9v67.9
		H63.9z"/>
	<path class="st1" d="M165.8,148.1V63.2h17v-17h17v-17h50.9v17h17v17h17v84.9h-33.9v-33.9h-50.9v33.9H165.8z M199.7,97.2h50.9V63.2
		h-17v-17h-17v17h-17V97.2z"/>
	<path class="st1" d="M301.5,148.1V29.3h33.9v17h17v17h17v-17h17v-17h33.9v118.8h-33.9V80.2h-17v33.9h-17V80.2h-17v67.9H301.5z"/>
	<path class="st1" d="M437.3,148.1V29.3h118.8v17h-84.9v33.9h67.9v17h-67.9v33.9h84.9v17H437.3z"/>
</g>
<g>
	<path class="st2" d="M101.5,319.1v-17h-17v-17h33.9v17h50.9V200.3h33.9v101.8h-17v17H101.5z"/>
	<path class="st2" d="M220.3,319.1v-84.9h17v-17h17v-17h50.9v17h17v17h17v84.9h-33.9v-33.9h-50.9v33.9H220.3z M254.2,268.2h50.9
		v-33.9h-17v-17h-17v17h-17V268.2z"/>
	<path class="st2" d="M356.1,319.1V200.3H390v17h17v17h17v-17h17v-17h33.9v118.8h-33.9v-67.9h-17v33.9h-17v-33.9h-17v67.9H356.1z"/>
</g>
</svg>
